<svg width="25" height="25" viewBox="0 0 25 25" fill="none" xmlns="http://www.w3.org/2000/svg">
<path d="M11.979 14.5834C16.2936 14.5834 19.7915 16.2157 19.7915 18.2292V20.8334H4.1665V18.2292C4.1665 16.2157 7.66442 14.5834 11.979 14.5834ZM18.7498 18.2292C18.7498 16.7917 15.7186 15.625 11.979 15.625C8.23942 15.625 5.20817 16.7917 5.20817 18.2292V19.7917H18.7498V18.2292ZM11.979 5.20837C12.9459 5.20837 13.8733 5.59249 14.557 6.27621C15.2407 6.95994 15.6248 7.88727 15.6248 8.85421C15.6248 9.82114 15.2407 10.7485 14.557 11.4322C13.8733 12.1159 12.9459 12.5 11.979 12.5C11.0121 12.5 10.0847 12.1159 9.40101 11.4322C8.71728 10.7485 8.33317 9.82114 8.33317 8.85421C8.33317 7.88727 8.71728 6.95994 9.40101 6.27621C10.0847 5.59249 11.0121 5.20837 11.979 5.20837ZM11.979 6.25004C11.2883 6.25004 10.626 6.52441 10.1376 7.01278C9.6492 7.50116 9.37484 8.16354 9.37484 8.85421C9.37484 9.54488 9.6492 10.2073 10.1376 10.6956C10.626 11.184 11.2883 11.4584 11.979 11.4584C12.6697 11.4584 13.3321 11.184 13.8204 10.6956C14.3088 10.2073 14.5832 9.54488 14.5832 8.85421C14.5832 8.16354 14.3088 7.50116 13.8204 7.01278C13.3321 6.52441 12.6697 6.25004 11.979 6.25004Z" fill="black"/>
</svg>
